<svg id="Layer_1" data-name="Layer 1" xmlns="http://www.w3.org/2000/svg" viewBox="0 0 148.66 39.77"><defs><style>.cls-1{fill:#ff5678;}</style></defs><path d="M4.64,40.71a3.73,3.73,0,0,1-3-1.17,4.8,4.8,0,0,1-1-3.27V5.44c0-2.92,1.35-4.39,4-4.39H17.13q6,0,9.31,3.31t3.28,9.19q0,5.9-3.28,9.22T17.13,26.1H8.58V36.27a4.84,4.84,0,0,1-1,3.27A3.64,3.64,0,0,1,4.64,40.71ZM8.58,19.44H15.8q6.28,0,6.29-5.89T15.8,7.77H8.58Z" transform="translate(-0.65 -1.05)"/><path d="M44.66,40.82a13.67,13.67,0,0,1-7-1.75A11.82,11.82,0,0,1,33,34.13a16.46,16.46,0,0,1-1.64-7.58A16.33,16.33,0,0,1,33,19a11.63,11.63,0,0,1,4.63-4.91,13.86,13.86,0,0,1,7-1.73,13.83,13.83,0,0,1,7,1.73A11.76,11.76,0,0,1,56.35,19,16.08,16.08,0,0,1,58,26.55a16.21,16.21,0,0,1-1.66,7.58,12,12,0,0,1-4.66,4.94A13.63,13.63,0,0,1,44.66,40.82Zm0-6.27a4.9,4.9,0,0,0,4-1.95c1-1.29,1.57-3.31,1.57-6.05s-.53-4.7-1.57-6a4.93,4.93,0,0,0-4-1.92,4.86,4.86,0,0,0-4,1.92c-1,1.27-1.54,3.27-1.54,6s.51,4.76,1.54,6.05A4.83,4.83,0,0,0,44.66,34.55Z" transform="translate(-0.65 -1.05)"/><path d="M72.34,40.82a25.78,25.78,0,0,1-4.63-.44,14.82,14.82,0,0,1-4.32-1.5A3.39,3.39,0,0,1,61.72,37a3.27,3.27,0,0,1,0-2.16A2.77,2.77,0,0,1,63,33.3a2.24,2.24,0,0,1,2.15,0A20,20,0,0,0,69,34.66a15.77,15.77,0,0,0,3.4.39,5.42,5.42,0,0,0,3.18-.75,2.34,2.34,0,0,0,1-2c0-1.29-.87-2.11-2.61-2.44l-5.37-1.05a8.57,8.57,0,0,1-4.92-2.5A7.17,7.17,0,0,1,62,21.38a7.93,7.93,0,0,1,1.43-4.77,9.32,9.32,0,0,1,3.94-3.11,14.16,14.16,0,0,1,5.78-1.12,16.45,16.45,0,0,1,8,1.89A2.62,2.62,0,0,1,82.6,16a3.49,3.49,0,0,1-.12,2.17,3,3,0,0,1-1.34,1.58,2.25,2.25,0,0,1-2.2-.08,16,16,0,0,0-3.07-1.19,10.35,10.35,0,0,0-2.61-.36,5.38,5.38,0,0,0-3.32.8,2.47,2.47,0,0,0-1,2c0,1.29.81,2.11,2.41,2.44l5.37,1.06a9.15,9.15,0,0,1,5.07,2.41,6.81,6.81,0,0,1,1.74,4.92,8,8,0,0,1-3.07,6.66A12.76,12.76,0,0,1,72.34,40.82Z" transform="translate(-0.65 -1.05)"/><path d="M100.13,40.82A14,14,0,0,1,93,39.07a11.65,11.65,0,0,1-4.68-5,16.61,16.61,0,0,1-1.64-7.61,16.27,16.27,0,0,1,1.64-7.55A11.44,11.44,0,0,1,93,14.08a14.45,14.45,0,0,1,7.14-1.7,15.1,15.1,0,0,1,3.4.42A12.28,12.28,0,0,1,107,14.22a2.86,2.86,0,0,1,1.58,1.86,3.81,3.81,0,0,1-.12,2.36,3.06,3.06,0,0,1-1.38,1.69,2.2,2.2,0,0,1-2.23-.19,8.05,8.05,0,0,0-4-1.17,5.73,5.73,0,0,0-4.69,2,8.89,8.89,0,0,0-1.66,5.75,9,9,0,0,0,1.66,5.75,5.68,5.68,0,0,0,4.69,2.08,8,8,0,0,0,1.94-.25,7.48,7.48,0,0,0,2-.86,2.15,2.15,0,0,1,2.23-.17,2.89,2.89,0,0,1,1.3,1.7,4.2,4.2,0,0,1,0,2.36A2.9,2.9,0,0,1,106.94,39a14.37,14.37,0,0,1-3.48,1.37A14.71,14.71,0,0,1,100.13,40.82Z" transform="translate(-0.65 -1.05)"/><path d="M123.93,40.82a13.67,13.67,0,0,1-7-1.75,11.76,11.76,0,0,1-4.63-4.94,16.46,16.46,0,0,1-1.64-7.58A16.33,16.33,0,0,1,112.26,19a11.57,11.57,0,0,1,4.63-4.91,15.17,15.17,0,0,1,14.07,0A11.76,11.76,0,0,1,135.62,19a16.08,16.08,0,0,1,1.66,7.53,16.21,16.21,0,0,1-1.66,7.58A12,12,0,0,1,131,39.07,13.63,13.63,0,0,1,123.93,40.82Zm0-6.27a4.91,4.91,0,0,0,4-1.95q1.56-1.94,1.56-6.05c0-2.7-.52-4.7-1.56-6a5.14,5.14,0,0,0-8,0c-1,1.27-1.53,3.27-1.53,6s.51,4.76,1.53,6.05A4.87,4.87,0,0,0,123.93,34.55Z" transform="translate(-0.65 -1.05)"/><path class="cls-1" d="M145,40.49a4.18,4.18,0,0,1-3.25-1.33,5,5,0,0,1-1.2-3.45,4.77,4.77,0,0,1,1.2-3.36,4.19,4.19,0,0,1,3.25-1.3,4.05,4.05,0,0,1,3.2,1.3,4.93,4.93,0,0,1,1.15,3.36,5.13,5.13,0,0,1-1.15,3.45A4,4,0,0,1,145,40.49Z" transform="translate(-0.65 -1.05)"/></svg>